PathFileType	4	(X/Y/Z)	C:\Users\86182\Documents\cortex\Trimmed_M4_H12.trc
DataRate	CameraRate	NumFrames	NumMarkers	Units	OrigDataRate	OrigDataStartFrame	OrigNumFrames
100.00	100.00	       169	2	mm	100.00	361	       901
Frame#	Time	gripper			box			
		X1	Y1	Z1	X2	Y2	Z2	

361	3.600	276.19077	151.24200	292.48056	278.35126	148.04085	156.29024	
362	3.610	276.19473	151.24741	292.49496	278.33533	148.04169	156.32388	
363	3.620	276.19824	151.25040	292.50558	278.32486	148.04349	156.34717	
364	3.630	276.20123	151.25172	292.51303	278.32031	148.04567	156.36191	
365	3.640	276.20358	151.25204	292.51770	278.32092	148.04774	156.36993	
366	3.650	276.20526	151.25191	292.52002	278.32547	148.04918	156.37250	
367	3.660	276.20630	151.25169	292.52054	278.33261	148.04950	156.37039	
368	3.670	276.20682	151.25165	292.51965	278.34109	148.04861	156.36456	
369	3.680	276.20694	151.25189	292.51785	278.34979	148.04698	156.35672	
370	3.690	276.20676	151.25243	292.51550	278.35815	148.04539	156.34879	
371	3.700	276.20621	151.25307	292.51282	278.36600	148.04436	156.34201	
372	3.710	276.20493	151.25342	292.50980	278.37332	148.04375	156.33643	
373	3.720	276.20224	151.25290	292.50610	278.37988	148.04276	156.33084	
374	3.730	276.19705	151.25064	292.50085	278.38477	148.03992	156.32317	
375	3.740	276.18793	151.24564	292.49255	278.38644	148.03311	156.31061	
376	3.750	276.17346	151.23679	292.47961	278.38260	148.01990	156.29044	
377	3.760	276.15277	151.22328	292.46094	278.37042	147.99800	156.26099	
378	3.770	276.12643	151.20500	292.43683	278.34723	147.96602	156.22253	
379	3.780	276.09650	151.18280	292.40884	278.31122	147.92416	156.17738	
380	3.790	276.06613	151.15848	292.37921	278.26251	147.87466	156.12970	
381	3.800	276.03885	151.13417	292.34998	278.20465	147.82170	156.08438	
382	3.810	276.01779	151.11203	292.32239	278.14423	147.77063	156.04575	
383	3.820	276.00479	151.09386	292.29773	278.08936	147.72675	156.01620	
384	3.830	275.99991	151.08090	292.27783	278.04718	147.69374	155.99606	
385	3.840	276.00195	151.07350	292.26483	278.02200	147.67293	155.98431	
386	3.850	276.00922	151.07097	292.26001	278.01492	147.66342	155.97931	
387	3.860	276.02014	151.07169	292.26260	278.02386	147.66275	155.97897	
388	3.870	276.03293	151.07344	292.27020	278.04428	147.66759	155.98105	
389	3.880	276.04514	151.07404	292.27969	278.06952	147.67415	155.98369	
390	3.890	276.05405	151.07208	292.28845	278.09229	147.67899	155.98573	
391	3.900	276.05792	151.06744	292.29492	278.10641	147.67992	155.98688	
392	3.910	276.05701	151.06119	292.29822	278.10876	147.67677	155.98727	
393	3.920	276.05255	151.05502	292.29810	278.09976	147.67096	155.98724	
394	3.930	276.04562	151.05037	292.29504	278.08249	147.66446	155.98709	
395	3.940	276.03656	151.04791	292.29047	278.06152	147.65910	155.98721	
396	3.950	276.02570	151.04774	292.28638	278.04187	147.65617	155.98779	
397	3.960	276.01416	151.04961	292.28467	278.02777	147.65623	155.98889	
398	3.970	276.00400	151.05289	292.28656	278.02170	147.65926	155.99042	
399	3.980	275.99759	151.05687	292.29175	278.02414	147.66484	155.99222	
400	3.990	275.99646	151.06090	292.29834	278.03348	147.67207	155.99411	
401	4.000	276.00061	151.06438	292.30414	278.04605	147.67952	155.99582	
402	4.010	276.00851	151.06674	292.30743	278.05688	147.68526	155.99707	
403	4.020	276.01761	151.06755	292.30774	278.06146	147.68770	155.99777	
404	4.030	276.02527	151.06665	292.30530	278.05783	147.68623	155.99786	
405	4.040	276.03009	151.06427	292.30093	278.04749	147.68146	155.99731	
406	4.050	276.03241	151.06094	292.29584	278.03442	147.67485	155.99625	
407	4.060	276.03333	151.05734	292.29160	278.02319	147.66812	155.99487	
408	4.070	276.03375	151.05382	292.28979	278.01727	147.66260	155.99350	
409	4.080	276.03406	151.05040	292.29114	278.01871	147.65897	155.99225	
410	4.090	276.03448	151.04701	292.29523	278.02768	147.65741	155.99127	
411	4.100	276.03531	151.04405	292.30060	278.04266	147.65775	155.99057	
412	4.110	276.03693	151.04230	292.30566	278.06042	147.65964	155.99026	
413	4.120	276.03964	151.04268	292.30896	278.07666	147.66254	155.99042	
414	4.130	276.04364	151.04587	292.30957	278.08728	147.66566	155.99103	
415	4.140	276.04828	151.05180	292.30722	278.08960	147.66817	155.99188	
416	4.150	276.05188	151.05937	292.30231	278.08292	147.66927	155.99278	
417	4.160	276.05228	151.06668	292.29587	278.06882	147.66861	155.99341	
418	4.170	276.04819	151.07185	292.28918	278.05063	147.66646	155.99365	
419	4.180	276.03973	151.07384	292.28375	278.03250	147.66370	155.99362	
420	4.190	276.02841	151.07253	292.28122	278.01794	147.66139	155.99359	
421	4.200	276.01630	151.06860	292.28281	278.00925	147.66028	155.99371	
422	4.210	276.00549	151.06310	292.28867	278.00729	147.66061	155.99414	
423	4.220	275.99768	151.05698	292.29742	278.01178	147.66220	155.99469	
424	4.230	275.99359	151.05090	292.30676	278.02121	147.66438	155.99518	
425	4.240	275.99347	151.04553	292.31445	278.03287	147.66612	155.99519	
426	4.250	275.99704	151.04163	292.31906	278.04361	147.66634	155.99442	
427	4.260	276.00391	151.03981	292.32001	278.05081	147.66441	155.99272	
428	4.270	276.01373	151.04019	292.31723	278.05334	147.66052	155.99030	
429	4.280	276.02625	151.04240	292.31116	278.05188	147.65552	155.98758	
430	4.290	276.04059	151.04572	292.30267	278.04819	147.65053	155.98505	
431	4.300	276.05521	151.04926	292.29330	278.04440	147.64641	155.98300	
432	4.310	276.06784	151.05229	292.28516	278.04211	147.64374	155.98166	
433	4.320	276.07608	151.05429	292.28030	278.04205	147.64285	155.98114	
434	4.330	276.07840	151.05496	292.27985	278.04398	147.64388	155.98151	
435	4.340	276.07458	151.05438	292.28357	278.04688	147.64668	155.98273	
436	4.350	276.06570	151.05276	292.29001	278.04932	147.65063	155.98465	
437	4.360	276.05322	151.05034	292.29742	278.04968	147.65469	155.98676	
438	4.370	276.03854	151.04724	292.30438	278.04636	147.65771	155.98868	
439	4.380	276.02325	151.04373	292.30994	278.03857	147.65910	155.99014	
440	4.390	276.00946	151.04024	292.31339	278.02747	147.65894	155.99106	
441	4.400	275.99924	151.03738	292.31458	278.01578	147.65767	155.99146	
442	4.410	275.99417	151.03581	292.31363	278.00632	147.65578	155.99130	
443	4.420	275.99500	151.03593	292.31110	278.00092	147.65358	155.99060	
444	4.430	276.00162	151.03757	292.30768	278.00034	147.65128	155.98944	
445	4.440	276.01260	151.03996	292.30423	278.00446	147.64903	155.98788	
446	4.450	276.02573	151.04210	292.30130	278.01248	147.64708	155.98618	
447	4.460	276.03876	151.04315	292.29913	278.02295	147.64575	155.98462	
448	4.470	276.05017	151.04276	292.29767	278.03400	147.64526	155.98351	
449	4.480	276.05911	151.04100	292.29675	278.04379	147.64557	155.98294	
450	4.490	276.06491	151.03836	292.29639	278.05057	147.64627	155.98285	
451	4.500	276.06705	151.03548	292.29669	278.05280	147.64690	155.98303	
452	4.510	276.06540	151.03282	292.29767	278.05008	147.64713	155.98337	
453	4.520	276.05997	151.03041	292.29938	278.04364	147.64694	155.98373	
454	4.530	276.05127	151.02815	292.30188	278.03543	147.64664	155.98419	
455	4.540	276.04050	151.02629	292.30505	278.02710	147.64670	155.98486	
456	4.550	276.02957	151.02539	292.30856	278.01947	147.64746	155.98590	
457	4.560	276.02029	151.02591	292.31174	278.01297	147.64896	155.98724	
458	4.570	276.01373	151.02802	292.31387	278.00784	147.65092	155.98877	
459	4.580	276.00992	151.03142	292.31451	278.00406	147.65298	155.99022	
460	4.590	276.00827	151.03551	292.31348	278.00104	147.65479	155.99147	
461	4.600	276.00809	151.03941	292.31076	277.99823	147.65602	155.99240	
462	4.610	276.00919	151.04256	292.30640	277.99545	147.65649	155.99289	
463	4.620	276.01184	151.04462	292.30069	277.99292	147.65620	155.99292	
464	4.630	276.01645	151.04544	292.29446	277.99127	147.65535	155.99255	
465	4.640	276.02271	151.04489	292.28906	277.99106	147.65408	155.99185	
466	4.650	276.02914	151.04279	292.28589	277.99274	147.65250	155.99084	
467	4.660	276.03406	151.03903	292.28583	277.99649	147.65067	155.98953	
468	4.670	276.03644	151.03404	292.28888	278.00214	147.64865	155.98798	
469	4.680	276.03638	151.02864	292.29401	278.00906	147.64664	155.98636	
470	4.690	276.03491	151.02386	292.29990	278.01639	147.64484	155.98489	
471	4.700	276.03333	151.02080	292.30511	278.02307	147.64343	155.98370	
472	4.710	276.03244	151.02028	292.30872	278.02811	147.64250	155.98289	
473	4.720	276.03229	151.02267	292.31042	278.03033	147.64207	155.98254	
474	4.730	276.03229	151.02765	292.31036	278.02911	147.64224	155.98273	
475	4.740	276.03195	151.03453	292.30884	278.02472	147.64314	155.98349	
476	4.750	276.03134	151.04233	292.30624	278.01834	147.64479	155.98480	
477	4.760	276.03094	151.04980	292.30307	278.01154	147.64699	155.98648	
478	4.770	276.03116	151.05576	292.30002	278.00580	147.64941	155.98820	
479	4.780	276.03171	151.05927	292.29800	278.00226	147.65178	155.98975	
480	4.790	276.03210	151.06000	292.29770	278.00153	147.65399	155.99097	
481	4.800	276.03214	151.05827	292.29926	278.00375	147.65613	155.99191	
482	4.810	276.03210	151.05510	292.30206	278.00851	147.65837	155.99268	
483	4.820	276.03268	151.05182	292.30484	278.01477	147.66086	155.99344	
484	4.830	276.03427	151.04935	292.30634	278.02090	147.66342	155.99426	
485	4.840	276.03656	151.04767	292.30563	278.02533	147.66560	155.99500	
486	4.850	276.03848	151.04593	292.30255	278.02704	147.66664	155.99530	
487	4.860	276.03839	151.04279	292.29776	278.02576	147.66585	155.99492	
488	4.870	276.03528	151.03734	292.29230	278.02264	147.66328	155.99377	
489	4.880	276.03030	151.03021	292.28748	278.02023	147.65968	155.99210	
490	4.890	276.02649	151.02354	292.28430	278.02100	147.65598	155.99014	
491	4.900	276.02658	151.01985	292.28351	278.02603	147.65279	155.98816	
492	4.910	276.03091	151.02019	292.28522	278.03525	147.65041	155.98633	
493	4.920	276.03763	151.02345	292.28873	278.04742	147.64870	155.98468	
494	4.930	276.04428	151.02744	292.29272	278.06015	147.64728	155.98315	
495	4.940	276.04913	151.03046	292.29602	278.07007	147.64584	155.98184	
496	4.950	276.05133	151.03215	292.29803	278.07404	147.64450	155.98097	
497	4.960	276.05066	151.03329	292.29852	278.07043	147.64371	155.98088	
498	4.970	276.04761	151.03523	292.29791	278.05963	147.64389	155.98175	
499	4.980	276.04309	151.03876	292.29663	278.04425	147.64513	155.98344	
500	4.990	276.03775	151.04343	292.29547	278.02789	147.64717	155.98564	
501	5.000	276.03094	151.04767	292.29529	278.01395	147.64972	155.98796	
502	5.010	276.02148	151.04984	292.29700	278.00439	147.65256	155.99014	
503	5.020	276.00961	151.04918	292.30090	278.00003	147.65561	155.99210	
504	5.030	275.99805	151.04654	292.30624	278.00055	147.65884	155.99380	
505	5.040	275.99048	151.04376	292.31171	278.00500	147.66212	155.99524	
506	5.050	275.98877	151.04233	292.31595	278.01160	147.66499	155.99634	
507	5.060	275.99225	151.04257	292.31812	278.01794	147.66666	155.99677	
508	5.070	275.99887	151.04382	292.31799	278.02179	147.66637	155.99631	
509	5.080	276.00659	151.04523	292.31561	278.02231	147.66402	155.99493	
510	5.090	276.01419	151.04617	292.31134	278.02026	147.66028	155.99301	
511	5.100	276.02118	151.04648	292.30579	278.01706	147.65608	155.99091	
512	5.110	276.02802	151.04637	292.29971	278.01416	147.65208	155.98886	
513	5.120	276.03546	151.04645	292.29410	278.01260	147.64864	155.98703	
514	5.130	276.04373	151.04713	292.28998	278.01309	147.64575	155.98534	
515	5.140	276.05154	151.04820	292.28830	278.01556	147.64345	155.98384	
516	5.150	276.05637	151.04877	292.28949	278.01926	147.64188	155.98268	
517	5.160	276.05597	151.04802	292.29297	278.02295	147.64127	155.98209	
518	5.170	276.05045	151.04610	292.29733	278.02542	147.64180	155.98227	
519	5.180	276.04202	151.04414	292.30109	278.02603	147.64343	155.98318	
520	5.190	276.03354	151.04343	292.30307	278.02444	147.64578	155.98468	
521	5.200	276.02676	151.04437	292.30283	278.02057	147.64836	155.98645	
522	5.210	276.02197	151.04640	292.30057	278.01477	147.65067	155.98819	
523	5.220	276.01892	151.04865	292.29712	278.00836	147.65257	155.98975	
524	5.230	276.01743	151.05037	292.29361	278.00302	147.65425	155.99109	
525	5.240	276.01770	151.05132	292.29117	278.00018	147.65591	155.99222	
526	5.250	276.02014	151.05173	292.29056	278.00052	147.65771	155.99319	
527	5.260	276.02484	151.05220	292.29181	278.00397	147.65965	155.99397	
528	5.270	276.03104	151.05302	292.29443	278.00967	147.66145	155.99451	
529	5.280	276.03729	151.05371	292.29761	278.01602	147.66263	155.99463	
